<?xml version="1.0" encoding="utf-8"?>
<!-- Generator: Adobe Illustrator 20.0.0, SVG Export Plug-In . SVG Version: 6.00 Build 0)  -->
<svg version="1.1" id="Layer_1" xmlns="http://www.w3.org/2000/svg" xmlns:xlink="http://www.w3.org/1999/xlink" x="0px" y="0px"
	 viewBox="0 0 500 500" style="enable-background:new 0 0 500 500;" xml:space="preserve">
<style type="text/css">
	.st0{fill:#D6D7D9;}
	.st1{fill:#73E5D4;}
	.st2{fill:#73D7D4;}
</style>
<g>
	<path class="st0" d="M389.4,441.4c-6.4,0-12.8-1.2-19-3.6l-113-43.6c-4.8-1.9-10.2-1.9-15,0l-112.9,43.6c-6.2,2.4-12.5,3.6-19,3.6
		c-17.1,0-33.1-8.6-42.9-22.9c-9.8-14.3-11.8-31.8-5.5-48.1l43.6-112.9c1.9-4.8,1.9-10.2,0-15L62.2,129.6
		c-6.3-16.3-4.3-33.8,5.5-48.1c9.8-14.3,25.9-22.9,42.9-22.9c6.4,0,12.8,1.2,19,3.6l112.8,43.6c4.8,1.9,10.2,1.9,15,0l113-43.6
		c6.2-2.4,12.5-3.6,19-3.6c17.1,0,33.1,8.6,42.9,22.9c9.8,14.3,11.8,31.8,5.5,48.1l-43.6,112.9c-1.9,4.8-1.9,10.2,0,15l43.6,113
		c6.3,16.3,4.3,33.8-5.5,48.1C422.5,432.9,406.4,441.4,389.4,441.4 M249.9,361.5c6.4,0,12.8,1.2,18.8,3.5l113,43.6
		c2.6,1,5.2,1.5,7.7,1.5c6.7,0,13.1-3.5,17.1-9.3c2.3-3.3,5.6-10.2,2.1-19.2l-43.6-113c-4.7-12.1-4.7-25.4,0-37.6l43.6-112.9
		c3.5-8.9,0.1-15.8-2.1-19.2c-5.5-8-15.5-11.4-24.8-7.8l-113,43.6c-12,4.6-25.5,4.6-37.6,0L118.3,91.3c-9.3-3.6-19.3-0.2-24.8,7.8
		c-2.3,3.3-5.6,10.2-2.1,19.2L135,231.1c4.7,12.1,4.7,25.5,0,37.6L91.3,381.6c-3.4,8.9-0.1,15.8,2.1,19.2c5.5,8,15.5,11.4,24.8,7.8
		L231.1,365C237.1,362.7,243.5,361.5,249.9,361.5"/>
	<path class="st1" d="M209.4,406.9l-29.2,11.3l22.1,49.8c8.5,19.1,26.8,31,47.7,31s39.2-11.9,47.7-31l22-49.7L290.6,407l-21.5,48.5
		c-3.5,7.8-10.6,12.4-19.1,12.4s-15.7-4.6-19.1-12.4L209.4,406.9 M378.4,303.2l-33.6,14.9c-11.9,5.3-21.3,14.7-26.6,26.6l-14.9,33.6
		l29.2,11.2l14.4-32.4c2.1-4.7,5.8-8.5,10.6-10.6l32.2-14.3L378.4,303.2 M121.6,303.2l-11.3,29.1l32.2,14.3
		c4.7,2.1,8.5,5.9,10.6,10.6l14.3,32.3l29.2-11.3l-14.9-33.6c-5.3-11.9-14.7-21.3-26.6-26.6L121.6,303.2 M81.7,180.2l-49.7,22
		C12.9,210.7,1,229,1,249.9c0,21,11.9,39.2,31,47.7l49.7,22l11.2-29.1l-48.3-21.4c-7.8-3.5-12.4-10.6-12.4-19.1s4.6-15.7,12.4-19.1
		L93,209.5L81.7,180.2 M418.3,180.2L407,209.5l48.4,21.4c7.8,3.5,12.4,10.6,12.4,19.1s-4.6,15.7-12.4,19.1L407,290.6l11.2,29.1
		l49.8-22.1c19.1-8.5,31-26.7,31-47.7c0-21-11.9-39.2-31-47.7L418.3,180.2 M167.6,110.3l-14.3,32.3c-2.1,4.7-5.8,8.5-10.6,10.6
		l-32.3,14.3l11.3,29.3l33.6-14.9c11.9-5.3,21.3-14.7,26.6-26.6l15-33.8L167.6,110.3 M332.3,110.2l-29.2,11.3l15,33.9
		c5.3,11.9,14.7,21.3,26.6,26.6l33.5,14.8l11.3-29.3l-32.2-14.3c-4.7-2.1-8.5-5.8-10.6-10.6L332.3,110.2 M250,1
		c-21,0-39.2,11.9-47.7,31l-22.1,49.8l29.2,11.3l21.4-48.4c3.5-7.8,10.6-12.4,19.1-12.4s15.6,4.6,19.1,12.4L290.5,93l29.2-11.3
		l-22-49.7C289.2,12.9,271,1,250,1"/>
	<path class="st2" d="M303.3,378.3L290.6,407l29.2,11.2l12.7-28.7L303.3,378.3 M196.7,378.3l-29.2,11.3l12.7,28.7l29.2-11.3
		L196.7,378.3 M407,290.6l-28.6,12.7l11.2,29.1l28.6-12.7L407,290.6 M92.9,290.5l-11.2,29.1l28.7,12.7l11.3-29.1L92.9,290.5
		 M110.4,167.5l-28.7,12.7L93,209.5l28.7-12.7L110.4,167.5 M389.5,167.5l-11.3,29.3l28.7,12.7l11.3-29.3L389.5,167.5 M180.2,81.8
		l-12.6,28.5l29.2,11.3l12.6-28.5L180.2,81.8 M319.7,81.7L290.5,93l12.6,28.4l29.2-11.3L319.7,81.7"/>
</g>
</svg>
